<?xml version="1.0" encoding="UTF-8"?><svg id="a" xmlns="http://www.w3.org/2000/svg" viewBox="0 0 317.98 78.1"><g isolation="isolate"><path d="M132.07,25.81c-3.38-1.86-7.58-2.48-12.61-1.86-5.17.62-9.54,3.51-13.12,8.68v-7.23h-11.16v50.95h11.57v-25.53c0-5.1,1.08-9.08,3.26-11.94,2.17-2.86,4.56-4.32,7.18-4.39,5.17-.21,8.54.86,10.13,3.2,1.58,2.34,2.38,6.06,2.38,11.16v27.49h11.88v-26.87c0-7.71-.76-13.19-2.27-16.43-1.45-2.96-3.86-5.37-7.23-7.23ZM155.63.49c-2.21,0-4.07.74-5.58,2.22-1.52,1.48-2.27,3.29-2.27,5.43s.76,3.93,2.27,5.37c1.51,1.45,3.37,2.17,5.58,2.17s3.94-.72,5.43-2.17c1.48-1.45,2.22-3.24,2.22-5.37s-.74-3.94-2.22-5.43c-1.48-1.48-3.29-2.22-5.43-2.22ZM62.93,23.54c-7.65,0-14.09,2.62-19.32,7.85s-7.85,11.61-7.85,19.12,2.62,13.99,7.85,19.43c5.23,5.44,11.68,8.16,19.32,8.16s13.98-2.72,19.22-8.16c5.23-5.44,7.85-11.92,7.85-19.43s-2.62-13.88-7.85-19.12c-5.24-5.23-11.64-7.85-19.22-7.85ZM73.84,62.7c-3,3.03-6.6,4.55-10.8,4.55s-7.72-1.51-10.75-4.55c-3.03-3.03-4.55-7.06-4.55-12.09,0-4.75,1.53-8.68,4.6-11.78,3.06-3.1,6.63-4.65,10.7-4.65s7.71,1.55,10.75,4.65c3.03,3.1,4.55,7.03,4.55,11.78,0,5.03-1.5,9.06-4.5,12.09ZM20.98,25.09c0-.27-.02-1.03-.05-2.27-.04-1.24-.04-2.13,0-2.69.03-.55.12-1.4.26-2.53.14-1.14.34-1.96.62-2.48.27-.52.71-1.14,1.29-1.86.58-.72,1.27-1.2,2.07-1.45.79-.24,1.82-.36,3.1-.36s2.7.21,4.29.62l3.2-10.85c-5.65-1.58-10.61-1.62-14.88-.1-4.27,1.52-7.54,4.24-9.82,8.16-1.59,2.83-2.38,6.79-2.38,11.88,0,1.72-.22,2.81-.67,3.25s-1.5.67-3.15.67H0l.1,10.33h8.78v40.92l11.99-.1v-40.82h12.19l-.1-10.33h-11.99ZM149.64,76.55h11.99V24.88h-11.99v51.67ZM304.34,76.55h11.99V24.88h-11.99v51.67ZM310.33,15.68c2.13,0,3.94-.72,5.43-2.17,1.48-1.45,2.22-3.24,2.22-5.37s-.74-3.94-2.22-5.43c-1.48-1.48-3.29-2.22-5.43-2.22s-4.07.74-5.58,2.22c-1.52,1.48-2.27,3.29-2.27,5.43s.76,3.93,2.27,5.37c1.51,1.45,3.38,2.17,5.58,2.17ZM292.61,32.22c-2.24-3.24-5.43-5.61-9.56-7.13-3.58-1.31-7.42-1.81-11.52-1.5-4.1.31-7.49,1.26-10.18,2.84-4.89,2.76-8.06,6.34-9.51,10.75l10.13,3.72c1.17-3.17,3.12-5.3,5.84-6.41,2.72-1.1,5.8-1.2,9.25-.31,2.2.55,3.89,1.53,5.06,2.95,1.17,1.41,1.76,2.81,1.76,4.19s-.14,2.69-.41,3.93c-4.55-.76-10.13-.58-16.74.52-11.58,2-17.02,7.89-16.33,17.67.48,4.62,2.62,8.29,6.41,11.01,3.79,2.72,8.33,3.81,13.64,3.26,3.1-.28,5.89-1.19,8.37-2.74,2.48-1.55,4.37-3.26,5.68-5.12l.41,6.51h11.37l-.31-33.9c0-3.58-1.12-6.99-3.36-10.23ZM282.53,62.86c-1.86,2.65-4.62,4.43-8.27,5.32-3.38.76-6.27.46-8.68-.88-2.41-1.34-3.62-3.29-3.62-5.84,0-3.65,2.2-5.92,6.61-6.82,2.62-.48,7.99-.45,16.12.1.41,2.76-.31,5.46-2.17,8.11ZM236.03,60.63c-2.21,0-4.12.79-5.74,2.38-1.62,1.59-2.43,3.48-2.43,5.68s.81,4.12,2.43,5.74c1.62,1.62,3.53,2.43,5.74,2.43s4.1-.81,5.68-2.43c1.58-1.62,2.38-3.53,2.38-5.74s-.79-4.1-2.38-5.68c-1.59-1.58-3.48-2.38-5.68-2.38ZM196.66,23.54c-7.65,0-14.09,2.62-19.33,7.85-5.24,5.24-7.85,11.61-7.85,19.12s2.62,13.99,7.85,19.43c5.24,5.44,11.68,8.16,19.33,8.16s13.99-2.72,19.22-8.16c5.23-5.44,7.85-11.92,7.85-19.43s-2.62-13.88-7.85-19.12c-5.24-5.23-11.64-7.85-19.22-7.85ZM207.56,62.7c-3,3.03-6.6,4.55-10.8,4.55s-7.72-1.51-10.75-4.55c-3.03-3.03-4.55-7.06-4.55-12.09,0-4.75,1.53-8.68,4.6-11.78,3.07-3.1,6.63-4.65,10.7-4.65s7.71,1.55,10.75,4.65c3.03,3.1,4.55,7.03,4.55,11.78,0,5.03-1.5,9.06-4.5,12.09Z" fill="#fff"/></g></svg>